# xmcd
#
# Track frame offsets: 
#        150
#        3500
#        24012
#        48085
#        66420
#        91412
#        144377
#        155695
#        178725
#        207365
#        224052
#        240905
#        274765
#        298535
#
# Disc length: 4311 seconds
#
# Revision: 0
# Processed by: cddbd v1.5PL3 Copyright (c) Steve Scherf et al.
# Submitted via: ExactAudioCopy v0.95a5
#
DISCID=c710d50e
DTITLE=The Hoodoomen - On Stage
DYEAR=2003
DGENRE=Blues
TTITLE0=Présentation
TTITLE1=Hoodoomen Theme
TTITLE2=Shake It
TTITLE3=Yeah, Yeah, Yeah
TTITLE4=Like A Coyote
TTITLE5=Stormy Monday
TTITLE6=Little Bitty Pretty One
TTITLE7=But Nothin' Else
TTITLE8=Further On Up The Road
TTITLE9=Just Your Fool
TTITLE10=Quarantine
TTITLE11=You Don't Have To Go
TTITLE12=My Girl Josephine
TTITLE13=Keep On Dreaming
EXTD=
EXTT0=
EXTT1=
EXTT2=
EXTT3=
EXTT4=
EXTT5=
EXTT6=
EXTT7=
EXTT8=
EXTT9=
EXTT10=
EXTT11=
EXTT12=
EXTT13=
PLAYORDER=
